<svg version="1.2" xmlns="http://www.w3.org/2000/svg" viewBox="0 0 3056 1001" width="500" height="164"><style>.a{fill:#fff}</style><path class="a" d="m406.4 61.1c-2.1 1.7-5.6 5.4-7.8 8.2-2.1 2.9-5.5 8.8-7.7 13.2-2.1 4.4-5.6 13.4-7.7 20-2.2 6.6-5.6 19-7.5 27.5-2 8.5-5 23.8-6.7 34-1.7 10.2-4.1 28.4-5.5 40.5-1.3 12.1-3 28.8-3.6 37-0.7 8.3-1.3 24.2-1.3 35.5-0.1 18.4 0.1 21.3 2.2 28.3 1.2 4.2 3.5 10.5 5 13.9 1.6 3.5 5.2 9.9 8.2 14.3 2.9 4.4 9.2 11.8 13.9 16.4 4.7 4.6 11.8 10.6 15.6 13.3 3.8 2.7 9.9 6.6 13.5 8.5 3.6 2 6.6 3.7 6.8 3.7 0.1 0.1-1.4 4.2-3.3 9.1-2 4.9-5.1 13.7-7 19.5-1.8 5.8-4.5 15-5.9 20.5-1.3 5.5-3.2 13.4-4 17.5-0.8 4.1-2.4 13.6-3.5 21-1.1 7.4-2.5 20.5-3.2 29-0.8 10-1 24.6-0.5 41.3l0.6 25.7c-5.8-0.9-10.7-2.5-14.5-4.1-3.8-1.7-12.4-6-19-9.6-6.6-3.6-17.1-10-23.4-14.2-6.3-4.2-15.9-11.2-21.5-15.7-5.5-4.5-13.6-11.4-18-15.5-4.3-4.1-9.9-10.6-12.5-14.4-2.6-3.8-6.2-10.6-8-15-1.9-4.4-4.6-12.9-6.1-19-1.6-6.1-3.4-16.4-4-23-0.8-7.4-1.1-18.5-0.7-29 0.3-9.3 1.3-22.2 2.2-28.5 0.9-6.3 3.4-18.9 5.7-28 3.7-15.1 4-17.3 3.6-26.5-0.4-8.3-0.9-11.1-3.4-16.4-1.8-4-4.6-8-7.6-10.7-2.7-2.4-6.7-5.3-9-6.3-2.4-1.1-7.5-2.5-11.3-3.2-4.5-0.7-10.2-0.9-16-0.5-5 0.4-11.7 1.6-15 2.7-3.3 1.1-8.2 3.6-11 5.7-2.7 2.1-7.4 7-10.3 10.8-2.9 3.8-7.7 11.8-10.7 17.9-2.9 6.1-7.2 16.4-9.5 23-2.2 6.6-5.4 16.9-7 23-1.5 6.1-3.9 16.6-5.3 23.5-1.4 6.9-3.5 19.3-4.7 27.5-1.1 8.3-2.4 20.2-2.9 26.5-0.5 6.6-0.5 17 0 24.5 0.5 7.2 1.9 17.1 3 22 1.2 4.9 3.9 13.5 6 19 2.1 5.5 5.7 13.2 8 17 2.3 3.8 6.7 10.4 9.7 14.5 3.1 4.1 10.5 12.5 16.6 18.6 6.1 6.1 15.4 14.2 20.6 18.1 5.2 4 14.2 10.1 20 13.7 5.8 3.7 17.7 10.2 26.5 14.6 8.8 4.3 21.8 10.3 29 13.1 7.2 2.9 24 8.9 37.5 13.5 13.5 4.5 34.4 12.1 46.5 16.9 12.1 4.7 25.4 10.4 29.5 12.5 4.1 2.2 8.4 4.8 9.5 5.9l2 2c-8.5 0.8-16.4 1.5-23 2.1-6.6 0.6-18.1 1.8-25.5 2.6-7.4 0.8-22.7 2.8-34 4.4-11.3 1.7-27 4.2-35 5.6-8 1.4-23.3 4.3-34 6.5-10.7 2.2-29.4 6.5-41.5 9.4-12.1 2.9-31.5 8-43 11.3-11.5 3.4-32.2 9.9-46 14.6-13.7 4.6-27.1 9.4-29.7 10.5-4.5 2-4.7 2.3-3.6 4.3 0.6 1.3 4.5 7 8.6 12.8 4.1 5.8 11.8 15.9 17.1 22.5 5.3 6.5 13.7 16.4 18.7 22 5 5.5 16 16.7 24.5 25 8.5 8.2 22 20.3 29.9 26.8 8 6.5 20.8 16.2 28.5 21.5 7.7 5.3 20.1 13.4 27.5 18 7.4 4.6 21.4 12.3 31 17.1 9.6 4.9 22.9 11.2 29.5 14.1 6.6 2.9 17.2 7.1 23.5 9.5 6.3 2.3 17.8 6.2 25.5 8.5 7.7 2.3 20.1 5.7 27.5 7.5 7.4 1.9 19.6 4.5 27 5.9 7.4 1.4 20.3 3.4 28.5 4.5 8.3 1.1 24.2 2.5 35.5 3.2 12.1 0.7 28.5 0.9 40 0.5 10.7-0.4 24.7-1.1 31-1.6 6.3-0.6 17.8-2 25.5-3.1 7.7-1.1 19.6-3.1 26.5-4.5 6.9-1.4 17.9-3.8 24.5-5.5 6.6-1.6 18.1-4.8 25.5-7.1 7.4-2.2 18.7-6 25-8.3 6.3-2.4 17.3-6.9 24.5-10 7.2-3.1 20.4-9.5 29.5-14 9.1-4.6 22.8-12.3 30.5-17 7.7-4.8 20.1-12.9 27.5-18 7.4-5.2 20-14.7 28-21.2 7.9-6.5 21.4-18.6 29.9-26.8 8.5-8.3 19.5-19.5 24.5-25 5-5.6 13.4-15.5 18.7-22 5.2-6.6 13.2-17.2 17.7-23.5 4.5-6.3 8.2-12.1 8.2-12.8 0-0.6-3.7-2.6-8.2-4.3-4.6-1.7-19.5-6.9-33.3-11.5-13.7-4.6-32.9-10.6-42.5-13.3-9.6-2.8-27.6-7.5-40-10.5-12.4-3-31.3-7.2-42-9.4-10.7-2.3-26-5.2-34-6.6-8-1.4-25.3-4.1-38.5-6-13.2-1.9-29.4-3.9-36-4.6-6.6-0.6-13-1.3-14.2-1.6-2.2-0.4-2.2-0.6-0.9-3.2 0.8-1.5 3.5-8.5 6.1-15.7 2.6-7.2 6.7-20.9 9.1-30.5 2.4-9.6 5.5-24.7 6.9-33.5 1.3-8.8 2.9-21.4 3.5-28 0.6-6.6 1.1-22.1 1.1-34.5 0-13.1-0.7-29.6-1.6-39.5-0.9-9.3-2.7-23.3-4-31-1.3-7.7-4.1-20.5-6.1-28.5-2-8-5.4-19.6-7.5-25.8-2.2-6.1-5.7-15.4-8-20.5-2.2-5-4.2-9.8-4.5-10.5-0.2-0.6 2.2-3.1 5.4-5.4 3.1-2.4 8.8-7.2 12.6-10.8 3.8-3.6 9.6-10.1 12.9-14.5 3.2-4.4 7.7-11.7 9.8-16.3 2.1-4.5 4.9-12.1 6-17 2-8 2.1-10.5 1.5-31.2-0.3-12.4-1.3-30.6-2.1-40.5-0.8-9.9-2.4-25.4-3.5-34.5-1.1-9.1-3.2-23.7-4.6-32.5-1.4-8.8-4.1-23.2-6.1-32-1.9-8.8-5.5-22.1-7.9-29.5-2.4-7.4-6.6-17.7-9.2-22.9-2.6-5.2-6.7-11.7-9.2-14.4-2.5-2.7-5.7-5.6-7.2-6.3-1.6-0.8-3.5-1.4-4.3-1.4-0.8 0-3.4 1.7-5.7 3.7-2.2 2.1-5.8 6-7.8 8.8-2 2.7-9.5 14.2-16.5 25.5-7 11.3-15.7 24.8-19.3 30-3.6 5.2-9.5 13.3-13.3 18-3.7 4.7-8.7 10.4-11.1 12.8-4.3 4.2-4.3 4.3-8.8 3.2-2.5-0.6-11.2-1.3-19.5-1.6-10.2-0.4-17.9-0.2-23.9 0.8-8.5 1.2-9 1.2-11.4-0.7-1.5-1.1-5.8-5.8-9.7-10.5-3.9-4.7-10-12.8-13.7-18-3.6-5.2-12.8-19.4-20.3-31.5-7.5-12.1-16.1-25.3-19.1-29.3-3-3.9-6.9-8.1-8.6-9.2-1.8-1.1-4-2-4.9-2-0.9 0-3.3 1.4-5.5 3.1z"/><path class="a" d="m1446.6 367.3h-60.8v181.6h-2.5l-124.6-181.6h-53.6v288.7h61v-181.7h2.2l125.6 181.7h52.7zm147.9 293c53.6 0 89.6-26.1 98.1-66.3l-55.5-3.7c-6.1 16.5-21.6 25.1-41.6 25.1-30.1 0-49.1-19.9-49.1-52.1v-0.2h147.5v-16.5c0-73.6-44.6-109.9-101.8-109.9-63.7 0-105 45.2-105 112 0 68.7 40.7 111.6 107.4 111.6zm-48.1-134.4c1.3-24.7 20-44.4 46.7-44.4 26.1 0 44.1 18.6 44.2 44.4zm186.7 130.1h60.1v-122.5c0-26.6 19.4-45 45.9-45 8.3 0 19.8 1.5 25.4 3.3v-53.3c-5.4-1.3-12.8-2.1-18.9-2.1-24.2 0-44.1 14.1-52 40.9h-2.3v-37.8h-58.2zm162.3 0h60v-216.6h-60zm30.1-244.4c17.9 0 32.6-13.7 32.6-30.5 0-16.6-14.7-30.3-32.6-30.3-17.7 0-32.4 13.7-32.4 30.3 0 16.8 14.7 30.5 32.4 30.5zm77.9 244.4h60v-129.9c0-24 15.2-39.9 35.3-39.9 19.7 0 32.9 13.5 32.9 34.8v135h58.3v-132.2c0-22.4 12.8-37.6 34.7-37.6 19.1 0 33.5 11.9 33.5 36v133.8h59.9v-145.6c0-46.9-27.9-73.7-68.2-73.7-31.7 0-56.4 16.2-65.3 41h-2.2c-6.9-25.1-29.1-41-58.8-41-29.2 0-51.3 15.5-60.4 41h-2.5v-38.2h-57.2zm362 0h60.1v-216.6h-60.1zm30.2-244.4c17.9 0 32.5-13.7 32.5-30.5 0-16.6-14.6-30.3-32.5-30.3-17.8 0-32.5 13.7-32.5 30.3 0 16.8 14.7 30.5 32.5 30.5zm193 27.9h-40.8v-51.9h-60v51.9h-29.6v45.1h29.6v112.8c-0.3 42.4 28.6 63.4 72.1 61.6 15.6-0.6 26.5-3.7 32.6-5.6l-9.4-44.7c-3 0.5-9.3 1.9-15 1.9-12 0-20.3-4.5-20.3-21.1v-104.9h40.8zm76.1 297.8c44.7 0 68.4-22.9 80.6-57.8l84.2-240h-63.6l-45.2 159h-2.3l-44.8-159h-63.2l77.7 222.8-3.5 9.1c-7.9 20.3-23 21.3-44.2 14.8l-13.5 44.9c8.6 3.6 22.6 6.2 37.8 6.2z"/></svg>