<svg version="1.2" xmlns="http://www.w3.org/2000/svg" viewBox="0 0 1000 1000" width="500" height="500"><style>.a{fill:#fff}</style><path  d="m0 500v500h1000v-1000h-1000z"/><path fill-rule="evenodd" class="a" d="m499 1834c-464 0-839-253.9-839-568 0-314.1 375-568 839-568 464 0 839 253.9 839 568 0 314.1-375 568-839 568z"/><path fill-rule="evenodd" class="a" d="m343.5 777.9c-29.9 0-56.4-24.5-73.8-62.8-4.2-9.4-30.3-16.6-46.4-23.7-16.3-7.3-144.3-34.5-144.3-128.6 0-27.6 13-117.2 45.9-123.6 43.7-8.4 45.2 24.5 39.7 41.1-5.5 16.6-16.8 83.2 15.3 113.6 30.3 28.6 70.3 46.7 69.9 41.6-0.6-8-0.9-17.6-0.9-25.8 0-93 42.3-168.2 94.6-168.2 52.2 0 94.5 75.2 94.5 168.2 0 93-42.3 168.2-94.5 168.2z"/><path fill-rule="evenodd" class="a" d="m336 521c63 0 114-35.5 114-79.5 0-27.6-8-144.1-36.5-160-12.5-7-44.5 84.5-77.5 80.5-62.6-7.5-114 35.5-114 79.5 0 44 51 79.5 114 79.5z"/><path fill-rule="evenodd" class="a" d="m336 521c-63 0-114-35.5-114-79.5 0-27.6 8-144.1 36.5-160 12.5-7 44.5 84.5 77.5 80.5 62.6-7.5 114 35.5 114 79.5 0 44-51 79.5-114 79.5z"/><path fill-rule="evenodd" class="a" d="m670 359c-66.4 0-120-53.6-120-120 0-66.4 53.6-120 120-120 66.4 0 120 53.6 120 120 0 66.4-53.6 120-120 120z"/><path fill-rule="evenodd" class="a" d="m335.5 428c-35.7 0-64.5-17-64.5-38 0-21 28.8-38 64.5-38 35.7 0 64.5 17 64.5 38 0 21-28.8 38-64.5 38z"/></svg>